# xmcd
#
# Track frame offsets: 
#        150
#        27540
#        49760
#        73544
#        92937
#        122184
#        146374
#        168066
#        189710
#        211249
#
# Disc length: 3156 seconds
#
# Revision: 0
# Processed by: cddbd v1.5.2PL0 Copyright (c) Steve Scherf et al.
# Submitted via: ExactAudioCopyFreeDBPlugin 1.0
#
DISCID=8e0c520a
DTITLE=Tran thu Ha - Tu hoa
DYEAR=1900
DGENRE=
TTITLE0=Dong song mua thu
TTITLE1=Co tinh
TTITLE2=Nho nhung dang hoa
TTITLE3=Em van nhu ngay xua
TTITLE4=Mua thu trang
TTITLE5=Ve di em
TTITLE6=Toc gio thoi bay
TTITLE7=Chim se toc xu
TTITLE8=Pho ngheo
TTITLE9=Nguoi thich tinh ca
EXTD=
EXTT0=
EXTT1=
EXTT2=
EXTT3=
EXTT4=
EXTT5=
EXTT6=
EXTT7=
EXTT8=
EXTT9=
PLAYORDER=
